<svg width="87" height="88" viewBox="0 0 87 88" fill="none" xmlns="http://www.w3.org/2000/svg">
<rect width="87" height="88" rx="10" fill="#FFE7E7"/>
<path d="M49.5402 59.1427C49.5402 62.3779 47.6503 64.9999 44.4152 64.9999H32.3348C29.0997 64.9999 27.2098 62.3779 27.2098 59.1427M50.8214 51.8213C52.4385 51.8213 53.75 53.4604 53.75 55.482C53.75 57.5036 52.4385 59.1427 50.8214 59.1427H25.9286C24.3115 59.1427 23 57.5036 23 55.482C23 53.4604 24.3115 51.8213 25.9286 51.8213" stroke="#FF6F6F" stroke-width="2" stroke-miterlimit="10" stroke-linecap="round"/>
<path d="M25.9286 46.3302V46.3101C25.9286 41.2766 30.0469 38.6427 35.0804 38.6427H41.6696C46.7031 38.6427 50.8214 41.2967 50.8214 46.3302V46.3101M42.1272 31.3213L42.8081 37.1757M51.5536 51.8213H36.4815C36.2876 51.8214 36.1016 51.8984 35.9644 52.0354L33.509 54.4909C33.475 54.5249 33.4346 54.5519 33.3902 54.5703C33.3457 54.5887 33.2981 54.5982 33.25 54.5982C33.2019 54.5982 33.1543 54.5887 33.1098 54.5703C33.0654 54.5519 33.025 54.5249 32.991 54.4909L30.5356 52.0354C30.3984 51.8984 30.2124 51.8214 30.0185 51.8213H25.1964C24.6139 51.8213 24.0552 51.5899 23.6433 51.178C23.2314 50.7661 23 50.2074 23 49.6249C23 49.0423 23.2314 48.4837 23.6433 48.0718C24.0552 47.6598 24.6139 47.4284 25.1964 47.4284H51.5536C52.1361 47.4284 52.6948 47.6598 53.1067 48.0718C53.5186 48.4837 53.75 49.0423 53.75 49.6249C53.75 50.2074 53.5186 50.7661 53.1067 51.178C52.6948 51.5899 52.1361 51.8213 51.5536 51.8213Z" stroke="#FF6F6F" stroke-width="2" stroke-miterlimit="10" stroke-linecap="round"/>
<path d="M43.5 64.9999H56.2494C56.9882 64.9998 57.6997 64.7206 58.2413 64.218C58.7829 63.7155 59.1145 63.0268 59.1697 62.29L62.4442 31.3213" stroke="#FF6F6F" stroke-width="2" stroke-miterlimit="10" stroke-linecap="round"/>
<path d="M53.75 31.3214L55.2143 25.4643L59.5156 24" stroke="#FF6F6F" stroke-width="2" stroke-linecap="round" stroke-linejoin="round"/>
<path d="M40.5714 31.3213H64" stroke="#FF6F6F" stroke-width="2" stroke-miterlimit="10" stroke-linecap="round"/>
</svg>
