<svg width="87" height="88" viewBox="0 0 87 88" fill="none" xmlns="http://www.w3.org/2000/svg">
<rect width="87" height="88" rx="10" fill="#D9F1FF"/>
<path d="M61.335 45.7289C61.0741 44.9834 60.3659 44.4988 59.5273 44.4988H46.1277C45.2705 44.4988 44.5809 44.9834 44.3014 45.7289L41.6364 53.3889V63.6581C41.6364 64.3663 42.2327 65 42.9409 65H44.0964C44.8045 65 45.3636 64.2918 45.3636 63.5836V61.2725H60.2727V63.5836C60.2727 64.2918 60.8505 65 61.5586 65H62.6955C63.4036 65 64 64.3663 64 63.6581V53.3889L61.335 45.7289ZM46.1277 46.3626H59.5273L61.4468 51.9538H44.2082L46.1277 46.3626ZM45.3636 57.545C44.3386 57.545 43.5 56.7063 43.5 55.6813C43.5 54.6562 44.3386 53.8175 45.3636 53.8175C46.3886 53.8175 47.2273 54.6562 47.2273 55.6813C47.2273 56.7063 46.3886 57.545 45.3636 57.545ZM60.2727 57.545C59.2477 57.545 58.4091 56.7063 58.4091 55.6813C58.4091 54.6562 59.2477 53.8175 60.2727 53.8175C61.2977 53.8175 62.1364 54.6562 62.1364 55.6813C62.1364 56.7063 61.2977 57.545 60.2727 57.545ZM33.5482 49.2141L34.1818 53.8175L32.225 55.7931L28.945 49.8664L23 46.5676L24.9755 44.5547L29.6345 45.2443L36.8468 38.0316L23 30.7444L25.6464 28.1165L42.7732 32.0677L50.0227 24.8177C51.0664 23.7274 52.93 23.7274 53.9736 24.8177C55.0732 25.9173 55.0732 27.7252 53.9736 28.7689L46.7241 36.0188L48.2523 42.6351H46.1277C44.5064 42.6351 43.1086 43.567 42.5682 45.0766L42.5123 45.1884L40.8164 41.9455L33.5482 49.2141Z" fill="#0089D6"/>
</svg>
