<svg width="87" height="88" viewBox="0 0 87 88" fill="none" xmlns="http://www.w3.org/2000/svg">
<rect width="87" height="88" rx="10" fill="#FEEDD3"/>
<path d="M34.1818 46.8C37.2755 46.8 39.7727 44.2987 39.7727 41.2C39.7727 38.1013 37.2755 35.6 34.1818 35.6C31.0882 35.6 28.5909 38.1013 28.5909 41.2C28.5909 44.2987 31.0882 46.8 34.1818 46.8ZM34.1818 39.3333C35.2068 39.3333 36.0455 40.1733 36.0455 41.2C36.0455 42.2267 35.2068 43.0667 34.1818 43.0667C33.1568 43.0667 32.3182 42.2267 32.3182 41.2C32.3182 40.1733 33.1568 39.3333 34.1818 39.3333ZM56.5455 33.7333H41.6364V48.6667H26.7273V30H23V58H26.7273V52.4H60.2727V58H64V41.2C64 37.0747 60.6641 33.7333 56.5455 33.7333ZM60.2727 48.6667H45.3636V37.4667H56.5455C58.5955 37.4667 60.2727 39.1467 60.2727 41.2V48.6667Z" fill="#FCB041"/>
</svg>
