<svg width="87" height="88" viewBox="0 0 87 88" fill="none" xmlns="http://www.w3.org/2000/svg">
<rect width="87" height="88" rx="10" fill="#D4FFF1"/>
<path d="M42 33H40V35H42V33ZM44 33H46V35H44V33ZM50 33H48V35H50V33ZM40 37H42V39H40V37ZM46 37H44V39H46V37ZM48 37H50V39H48V37ZM42 41H40V43H42V41ZM44 41H46V43H44V41ZM50 41H48V43H50V41ZM40 45H42V47H40V45ZM46 45H44V47H46V45ZM40 49H42V51H40V49ZM46 49H44V51H46V49ZM40 53H42V55H40V53ZM46 53H44V55H46V53ZM40 57H42V59H40V57ZM46 57H44V59H46V57ZM51 50H54V48H51V50ZM54 54H51V52H54V54ZM51 58H54V56H51V58Z" fill="#00D690"/>
<path fill-rule="evenodd" clip-rule="evenodd" d="M37 24L53 30V44H57C57.2652 44 57.5196 44.1054 57.7071 44.2929C57.8946 44.4804 58 44.7348 58 45V62H59C59.2652 62 59.5196 62.1054 59.7071 62.2929C59.8946 62.4804 60 62.7348 60 63C60 63.2652 59.8946 63.5196 59.7071 63.7071C59.5196 63.8946 59.2652 64 59 64H29C28.7348 64 28.4804 63.8946 28.2929 63.7071C28.1054 63.5196 28 63.2652 28 63C28 62.7348 28.1054 62.4804 28.2929 62.2929C28.4804 62.1054 28.7348 62 29 62H30V41C30 40.7348 30.1054 40.4804 30.2929 40.2929C30.4804 40.1054 30.7348 40 31 40H33V33H35V40H37V24ZM39 26.886L51 31.386V44H48C47.7348 44 47.4804 44.1054 47.2929 44.2929C47.1054 44.4804 47 44.7348 47 45V62H39V26.886ZM32 42V62H37V42H32ZM56 62H54V60H51V62H49V46H56V62Z" fill="#00D690"/>
</svg>
