<svg width="84" height="26" viewBox="0 0 84 26" fill="none" xmlns="http://www.w3.org/2000/svg">
<path d="M15.5977 21.6963V25H3.46191V21.6963H15.5977ZM4.62402 0.828125V25H0.457031V0.828125H4.62402ZM36.9971 12.25V13.5781C36.9971 15.4043 36.7591 17.0423 36.2832 18.4922C35.8073 19.9421 35.1266 21.1761 34.2412 22.1943C33.3669 23.2126 32.3154 23.9928 31.0869 24.5352C29.8584 25.0664 28.4971 25.332 27.0029 25.332C25.5199 25.332 24.1641 25.0664 22.9355 24.5352C21.7181 23.9928 20.6611 23.2126 19.7646 22.1943C18.8682 21.1761 18.1709 19.9421 17.6729 18.4922C17.1859 17.0423 16.9424 15.4043 16.9424 13.5781V12.25C16.9424 10.4238 17.1859 8.79134 17.6729 7.35254C18.1598 5.90267 18.846 4.66862 19.7314 3.65039C20.6279 2.62109 21.6849 1.84082 22.9023 1.30957C24.1309 0.767253 25.4867 0.496094 26.9697 0.496094C28.4639 0.496094 29.8252 0.767253 31.0537 1.30957C32.2822 1.84082 33.3392 2.62109 34.2246 3.65039C35.11 4.66862 35.7907 5.90267 36.2666 7.35254C36.7536 8.79134 36.9971 10.4238 36.9971 12.25ZM32.8301 13.5781V12.2168C32.8301 10.8665 32.6973 9.67676 32.4316 8.64746C32.1771 7.6071 31.7952 6.73828 31.2861 6.04102C30.7881 5.33268 30.1738 4.80143 29.4434 4.44727C28.7129 4.08203 27.8883 3.89941 26.9697 3.89941C26.0511 3.89941 25.2321 4.08203 24.5127 4.44727C23.7933 4.80143 23.179 5.33268 22.6699 6.04102C22.1719 6.73828 21.79 7.6071 21.5244 8.64746C21.2588 9.67676 21.126 10.8665 21.126 12.2168V13.5781C21.126 14.9284 21.2588 16.1237 21.5244 17.1641C21.79 18.2044 22.1774 19.0843 22.6865 19.8037C23.2067 20.512 23.8265 21.0488 24.5459 21.4141C25.2653 21.7682 26.0843 21.9453 27.0029 21.9453C27.9326 21.9453 28.7572 21.7682 29.4766 21.4141C30.196 21.0488 30.8047 20.512 31.3027 19.8037C31.8008 19.0843 32.1771 18.2044 32.4316 17.1641C32.6973 16.1237 32.8301 14.9284 32.8301 13.5781ZM59.7246 12.6484V21.8789C59.3815 22.3327 58.8447 22.8307 58.1143 23.373C57.3949 23.9043 56.4375 24.3636 55.2422 24.751C54.0469 25.1383 52.5583 25.332 50.7764 25.332C49.2601 25.332 47.8711 25.0775 46.6094 24.5684C45.3477 24.0482 44.2575 23.29 43.3389 22.2939C42.4313 21.2979 41.7285 20.0859 41.2305 18.6582C40.7324 17.2194 40.4834 15.5814 40.4834 13.7441V12.0674C40.4834 10.2412 40.7103 8.61426 41.1641 7.18652C41.6289 5.74772 42.293 4.53027 43.1562 3.53418C44.0195 2.53809 45.0599 1.78548 46.2773 1.27637C47.5059 0.756185 48.8949 0.496094 50.4443 0.496094C52.4255 0.496094 54.0635 0.828125 55.3584 1.49219C56.6644 2.14518 57.6715 3.05273 58.3799 4.21484C59.0882 5.37695 59.5365 6.70508 59.7246 8.19922H55.6406C55.5078 7.35807 55.2477 6.60547 54.8604 5.94141C54.484 5.27734 53.9417 4.75716 53.2334 4.38086C52.5361 3.99349 51.6286 3.7998 50.5107 3.7998C49.5479 3.7998 48.7012 3.98242 47.9707 4.34766C47.2402 4.71289 46.6315 5.24967 46.1445 5.95801C45.6686 6.66634 45.3089 7.52962 45.0654 8.54785C44.8219 9.56608 44.7002 10.7282 44.7002 12.0342V13.7441C44.7002 15.0723 44.8385 16.251 45.1152 17.2803C45.403 18.3096 45.8125 19.1784 46.3438 19.8867C46.8861 20.5951 47.5446 21.1318 48.3193 21.4971C49.0941 21.8512 49.9684 22.0283 50.9424 22.0283C51.8942 22.0283 52.6745 21.9508 53.2832 21.7959C53.8919 21.6299 54.3734 21.4362 54.7275 21.2148C55.0928 20.9824 55.375 20.7611 55.5742 20.5508V15.7529H50.5439V12.6484H59.7246ZM83.6143 12.25V13.5781C83.6143 15.4043 83.3763 17.0423 82.9004 18.4922C82.4245 19.9421 81.7438 21.1761 80.8584 22.1943C79.984 23.2126 78.9326 23.9928 77.7041 24.5352C76.4756 25.0664 75.1143 25.332 73.6201 25.332C72.137 25.332 70.7812 25.0664 69.5527 24.5352C68.3353 23.9928 67.2783 23.2126 66.3818 22.1943C65.4854 21.1761 64.7881 19.9421 64.29 18.4922C63.8031 17.0423 63.5596 15.4043 63.5596 13.5781V12.25C63.5596 10.4238 63.8031 8.79134 64.29 7.35254C64.777 5.90267 65.4632 4.66862 66.3486 3.65039C67.2451 2.62109 68.3021 1.84082 69.5195 1.30957C70.748 0.767253 72.1038 0.496094 73.5869 0.496094C75.0811 0.496094 76.4424 0.767253 77.6709 1.30957C78.8994 1.84082 79.9564 2.62109 80.8418 3.65039C81.7272 4.66862 82.4079 5.90267 82.8838 7.35254C83.3708 8.79134 83.6143 10.4238 83.6143 12.25ZM79.4473 13.5781V12.2168C79.4473 10.8665 79.3145 9.67676 79.0488 8.64746C78.7943 7.6071 78.4124 6.73828 77.9033 6.04102C77.4053 5.33268 76.791 4.80143 76.0605 4.44727C75.3301 4.08203 74.5055 3.89941 73.5869 3.89941C72.6683 3.89941 71.8493 4.08203 71.1299 4.44727C70.4105 4.80143 69.7962 5.33268 69.2871 6.04102C68.7891 6.73828 68.4072 7.6071 68.1416 8.64746C67.876 9.67676 67.7432 10.8665 67.7432 12.2168V13.5781C67.7432 14.9284 67.876 16.1237 68.1416 17.1641C68.4072 18.2044 68.7946 19.0843 69.3037 19.8037C69.8239 20.512 70.4437 21.0488 71.1631 21.4141C71.8825 21.7682 72.7015 21.9453 73.6201 21.9453C74.5498 21.9453 75.3743 21.7682 76.0938 21.4141C76.8132 21.0488 77.4219 20.512 77.9199 19.8037C78.418 19.0843 78.7943 18.2044 79.0488 17.1641C79.3145 16.1237 79.4473 14.9284 79.4473 13.5781Z" fill="white"/>
</svg>
